<svg width="20" height="12" viewBox="0 0 20 12" fill="none" xmlns="http://www.w3.org/2000/svg">
<path d="M0.793031 1.04302C0.980558 0.855549 1.23487 0.750234 1.50003 0.750234C1.76519 0.750234 2.0195 0.855549 2.20703 1.04302L10 8.83602L17.793 1.04302C17.8853 0.94751 17.9956 0.871328 18.1176 0.818919C18.2396 0.76651 18.3708 0.738924 18.5036 0.73777C18.6364 0.736616 18.7681 0.761917 18.891 0.812198C19.0139 0.862479 19.1255 0.936733 19.2194 1.03063C19.3133 1.12452 19.3876 1.23617 19.4379 1.35907C19.4881 1.48196 19.5134 1.61364 19.5123 1.74642C19.5111 1.8792 19.4835 2.01042 19.4311 2.13242C19.3787 2.25443 19.3025 2.36477 19.207 2.45702L10 11.664L0.793031 2.45702C0.605559 2.26949 0.500244 2.01518 0.500244 1.75002C0.500244 1.48486 0.605559 1.23055 0.793031 1.04302Z" fill="white"/>
</svg>
