<svg width="21" height="22" viewBox="0 0 21 22" fill="none" xmlns="http://www.w3.org/2000/svg">
<path d="M12 1.17585C11.5439 0.912545 11.0266 0.773926 10.5 0.773926C9.97339 0.773926 9.45606 0.912545 9 1.17585L1.5 5.50585C1.19597 5.68138 0.943498 5.93385 0.767962 6.23788C0.592426 6.54191 0.500009 6.88679 0.5 7.23785V20.6609C0.5 20.9261 0.605357 21.1804 0.792893 21.368C0.98043 21.5555 1.23478 21.6609 1.5 21.6609H7.5C7.76522 21.6609 8.01957 21.5555 8.20711 21.368C8.39464 21.1804 8.5 20.9261 8.5 20.6609V14.6608H12.5V20.6609C12.5 20.9261 12.6054 21.1804 12.7929 21.368C12.9804 21.5555 13.2348 21.6609 13.5 21.6609H19.5C19.7652 21.6609 20.0196 21.5555 20.2071 21.368C20.3946 21.1804 20.5 20.9261 20.5 20.6609V7.23785C20.5 6.88679 20.4076 6.54191 20.232 6.23788C20.0565 5.93385 19.804 5.68138 19.5 5.50585L12 1.17585Z" fill="#42C83C"/>
<path d="M11 2.90785C10.848 2.82008 10.6755 2.77387 10.5 2.77387C10.3245 2.77387 10.152 2.82008 10 2.90785L2.5 7.23785V19.6609H7V13.6608C7 13.3956 7.10536 13.1413 7.29289 12.9537C7.48043 12.7662 7.73478 12.6608 8 12.6608H13C13.2652 12.6608 13.5196 12.7662 13.7071 12.9537C13.8946 13.1413 14 13.3956 14 13.6608V19.6609H18.5V7.23785L11 2.90785ZM9 1.17585C9.45606 0.912545 9.97339 0.773926 10.5 0.773926C11.0266 0.773926 11.5439 0.912545 12 1.17585L19.5 5.50585C19.804 5.68138 20.0565 5.93385 20.232 6.23788C20.4076 6.54191 20.5 6.88679 20.5 7.23785V20.6609C20.5 20.9261 20.3946 21.1804 20.2071 21.368C20.0196 21.5555 19.7652 21.6609 19.5 21.6609H13C12.7348 21.6609 12.4804 21.5555 12.2929 21.368C12.1054 21.1804 12 20.9261 12 20.6609V14.6608H9V20.6609C9 20.9261 8.89464 21.1804 8.70711 21.368C8.51957 21.5555 8.26522 21.6609 8 21.6609H1.5C1.23478 21.6609 0.98043 21.5555 0.792893 21.368C0.605357 21.1804 0.5 20.9261 0.5 20.6609V7.23785C0.500009 6.88679 0.592426 6.54191 0.767962 6.23788C0.943498 5.93385 1.19597 5.68138 1.5 5.50585L9 1.17585Z" fill="#42C83C"/>
</svg>
