<svg width="21" height="21" viewBox="0 0 21 21" fill="none" xmlns="http://www.w3.org/2000/svg">
<path d="M11 2.13392C10.848 2.04616 10.6755 1.99995 10.5 1.99995C10.3245 1.99995 10.152 2.04616 10 2.13392L2.5 6.46392V18.8869H7V12.8869C7 12.6217 7.10536 12.3674 7.29289 12.1798C7.48043 11.9923 7.73478 11.8869 8 11.8869H13C13.2652 11.8869 13.5196 11.9923 13.7071 12.1798C13.8946 12.3674 14 12.6217 14 12.8869V18.8869H18.5V6.46392L11 2.13392ZM9 0.401924C9.45606 0.138619 9.97339 0 10.5 0C11.0266 0 11.5439 0.138619 12 0.401924L19.5 4.73192C19.804 4.90746 20.0565 5.15992 20.232 5.46395C20.4076 5.76798 20.5 6.11286 20.5 6.46392V19.8869C20.5 20.1521 20.3946 20.4065 20.2071 20.594C20.0196 20.7816 19.7652 20.8869 19.5 20.8869H13C12.7348 20.8869 12.4804 20.7816 12.2929 20.594C12.1054 20.4065 12 20.1521 12 19.8869V13.8869H9V19.8869C9 20.1521 8.89464 20.4065 8.70711 20.594C8.51957 20.7816 8.26522 20.8869 8 20.8869H1.5C1.23478 20.8869 0.98043 20.7816 0.792893 20.594C0.605357 20.4065 0.5 20.1521 0.5 19.8869V6.46392C0.500009 6.11286 0.592426 5.76798 0.767962 5.46395C0.943498 5.15992 1.19597 4.90746 1.5 4.73192L9 0.401924Z" fill="#B3B3B3"/>
</svg>
