<svg width="21" height="20" viewBox="0 0 21 20" fill="none" xmlns="http://www.w3.org/2000/svg">
<path d="M13.8623 0.567013L14.112 0.1345L13.8623 0.567016L19.8623 4.03101C19.9383 4.07489 20.0014 4.13801 20.0453 4.21402C20.0892 4.29003 20.1123 4.37625 20.1123 4.464V19C20.1123 19.1326 20.0596 19.2598 19.9659 19.3536C19.8721 19.4473 19.7449 19.5 19.6123 19.5H13.6123C13.4797 19.5 13.3525 19.4473 13.2588 19.3536C13.165 19.2598 13.1123 19.1326 13.1123 19V1.00001C13.1123 0.912245 13.1354 0.826025 13.1793 0.750018C13.2232 0.674009 13.2863 0.610892 13.3623 0.56701C13.4383 0.523127 13.5245 0.500025 13.6123 0.500026C13.7001 0.500026 13.7863 0.523129 13.8623 0.567013ZM1.6123 19.5C1.4797 19.5 1.35252 19.4473 1.25875 19.3536C1.16498 19.2598 1.1123 19.1326 1.1123 19V1C1.1123 0.867392 1.16498 0.740215 1.25875 0.646447C1.35252 0.552678 1.4797 0.5 1.6123 0.5C1.74491 0.5 1.87209 0.552678 1.96586 0.646447C2.05963 0.740215 2.1123 0.867392 2.1123 1V19C2.1123 19.1326 2.05963 19.2598 1.96586 19.3536C1.87209 19.4473 1.74491 19.5 1.6123 19.5ZM7.25875 0.646446C7.35252 0.552678 7.4797 0.5 7.6123 0.5C7.74491 0.5 7.87209 0.552678 7.96586 0.646446C8.05963 0.740215 8.1123 0.867392 8.1123 1V19C8.1123 19.1326 8.05963 19.2598 7.96586 19.3536C7.87209 19.4473 7.74491 19.5 7.6123 19.5C7.4797 19.5 7.35252 19.4473 7.25875 19.3536C7.16498 19.2598 7.1123 19.1326 7.1123 19V1C7.1123 0.867392 7.16498 0.740215 7.25875 0.646446Z" stroke="#B3B3B3"/>
</svg>
