<svg width="21" height="20" viewBox="0 0 21 20" fill="none" xmlns="http://www.w3.org/2000/svg">
<path d="M1.6123 20C1.34709 20 1.09273 19.8946 0.905198 19.7071C0.717661 19.5196 0.612305 19.2652 0.612305 19V1C0.612305 0.734784 0.717661 0.48043 0.905198 0.292893C1.09273 0.105357 1.34709 0 1.6123 0C1.87752 0 2.13188 0.105357 2.31941 0.292893C2.50695 0.48043 2.6123 0.734784 2.6123 1V19C2.6123 19.2652 2.50695 19.5196 2.31941 19.7071C2.13188 19.8946 1.87752 20 1.6123 20ZM14.1123 0.134C13.9603 0.0462328 13.7878 2.66256e-05 13.6123 2.55108e-05C13.4368 2.43959e-05 13.2643 0.0462283 13.1123 0.133994C12.9603 0.221759 12.8341 0.347993 12.7463 0.500009C12.6585 0.652025 12.6123 0.824466 12.6123 1V19C12.6123 19.2652 12.7177 19.5196 12.9052 19.7071C13.0927 19.8946 13.3471 20 13.6123 20H19.6123C19.8775 20 20.1319 19.8946 20.3194 19.7071C20.5069 19.5196 20.6123 19.2652 20.6123 19V4.464C20.6123 4.28847 20.5661 4.11603 20.4783 3.96401C20.3906 3.812 20.2643 3.68577 20.1123 3.598L14.1123 0.134ZM7.6123 0C7.34709 0 7.09273 0.105357 6.9052 0.292893C6.71766 0.48043 6.6123 0.734784 6.6123 1V19C6.6123 19.2652 6.71766 19.5196 6.9052 19.7071C7.09273 19.8946 7.34709 20 7.6123 20C7.87752 20 8.13188 19.8946 8.31941 19.7071C8.50695 19.5196 8.6123 19.2652 8.6123 19V1C8.6123 0.734784 8.50695 0.48043 8.31941 0.292893C8.13188 0.105357 7.87752 0 7.6123 0Z" fill="#42C83C"/>
</svg>
