<svg width="23" height="22" viewBox="0 0 23 22" fill="none" xmlns="http://www.w3.org/2000/svg">
<path d="M21.0332 2.06674C19.8551 0.823715 18.2735 0.0890624 16.6018 0.00846633C14.9301 -0.0721297 13.2905 0.507217 12.0081 1.63162C11.8606 1.74805 11.6829 1.81519 11.4983 1.82424C11.3126 1.81858 11.1334 1.7511 10.9869 1.63162C9.70511 0.506577 8.06564 -0.0732023 6.39402 0.00740575C4.7224 0.0880138 3.1409 0.823114 1.96353 2.06674C0.697268 3.39102 0 5.15215 0 7.02506C0 8.89797 0.697268 10.6591 1.92078 11.9352L9.25854 20.918C9.53504 21.2572 9.87864 21.5296 10.2656 21.7164C10.6526 21.9033 11.0738 22 11.5 22C11.9262 22 12.3474 21.9033 12.7343 21.7164C13.1213 21.5296 13.4649 21.2572 13.7414 20.918L21.0348 11.9834C21.6595 11.3338 22.1548 10.5611 22.4921 9.71002C22.8295 8.85894 23.0021 7.94635 23 7.02506C23.0014 6.10371 22.8283 5.1912 22.4908 4.34017C22.1532 3.48915 21.6578 2.71648 21.0332 2.06674V2.06674Z" fill="white"/>
</svg>
