<svg width="22" height="22" viewBox="0 0 22 22" fill="none" xmlns="http://www.w3.org/2000/svg">
<path d="M9.82057 0.723046C4.64057 0.723046 0.413574 4.86305 0.413574 10.002C0.413574 15.141 4.63957 19.281 9.82057 19.281C12.0546 19.281 14.1106 18.511 15.7276 17.223L20.0806 21.576C20.1728 21.6716 20.2832 21.7477 20.4052 21.8001C20.5272 21.8526 20.6584 21.8801 20.7912 21.8813C20.924 21.8825 21.0556 21.8571 21.1785 21.8069C21.3014 21.7566 21.4131 21.6823 21.507 21.5884C21.6009 21.4945 21.6751 21.3829 21.7254 21.26C21.7757 21.1371 21.801 21.0054 21.7998 20.8726C21.7987 20.7399 21.7711 20.6086 21.7187 20.4866C21.6663 20.3646 21.5901 20.2543 21.4946 20.162L17.1506 15.818C18.4955 14.1784 19.2296 12.1227 19.2276 10.002C19.2276 4.86205 15.0016 0.722046 9.82057 0.722046V0.723046ZM2.41357 10.002C2.41357 5.99605 5.71557 2.72205 9.82057 2.72205C13.9256 2.72205 17.2276 5.99605 17.2276 10.002C17.2276 14.008 13.9256 17.281 9.82057 17.281C5.71557 17.281 2.41357 14.009 2.41357 10.002Z" fill="#42C83C"/>
<path d="M14.647 9.75C14.647 12.373 12.487 14.5 9.824 14.5C7.16 14.5 5 12.373 5 9.75C5 7.127 7.16 5 9.824 5C12.488 5 14.647 7.127 14.647 9.75Z" fill="#42C83C"/>
</svg>
