<svg width="22" height="22" viewBox="0 0 22 22" fill="none" xmlns="http://www.w3.org/2000/svg">
<path d="M9.82057 0.278954C4.64057 0.278954 0.413574 4.41895 0.413574 9.55795C0.413574 14.697 4.63957 18.837 9.82057 18.837C12.0546 18.837 14.1106 18.067 15.7276 16.779L20.0806 21.132C20.1728 21.2275 20.2832 21.3036 20.4052 21.3561C20.5272 21.4085 20.6584 21.4361 20.7912 21.4372C20.924 21.4384 21.0556 21.4131 21.1785 21.3628C21.3014 21.3125 21.4131 21.2382 21.507 21.1444C21.6009 21.0505 21.6751 20.9388 21.7254 20.8159C21.7757 20.693 21.801 20.5613 21.7998 20.4286C21.7987 20.2958 21.7711 20.1646 21.7187 20.0425C21.6663 19.9205 21.5901 19.8102 21.4946 19.718L17.1506 15.374C18.4955 13.7343 19.2296 11.6786 19.2276 9.55795C19.2276 4.41795 15.0016 0.277954 9.82057 0.277954V0.278954ZM2.41357 9.55795C2.41357 5.55195 5.71557 2.27795 9.82057 2.27795C13.9256 2.27795 17.2276 5.55195 17.2276 9.55795C17.2276 13.564 13.9256 16.837 9.82057 16.837C5.71557 16.837 2.41357 13.565 2.41357 9.55795Z" fill="#B3B3B3"/>
</svg>
